<svg width="295.9" height="74" viewBox="0 0 295.9 74" xmlns="http://www.w3.org/2000/svg"><g id="svgGroup" stroke-linecap="round" fill-rule="evenodd" font-size="9pt" stroke="#fff" stroke-width="0.25mm" fill="white" style="stroke:#fff;stroke-width:0.25mm;fill:white"><path d="M 213.9 41.8 L 213.9 73 L 205.1 73 L 205.1 43.8 A 40.442 40.442 0 0 0 204.89 39.528 Q 204.355 34.503 202.45 31.7 A 8.554 8.554 0 0 0 196.2 27.9 A 12.377 12.377 0 0 0 194.6 27.8 A 13.767 13.767 0 0 0 185.953 30.854 A 17.921 17.921 0 0 0 185 31.65 A 20.394 20.394 0 0 0 179.593 39.57 A 25.198 25.198 0 0 0 178.9 41.6 L 178.9 73 L 170.1 73 L 170.1 43.8 A 42.132 42.132 0 0 0 169.9 39.538 Q 169.459 35.219 168.047 32.563 A 10.108 10.108 0 0 0 167.5 31.65 A 8.427 8.427 0 0 0 161.336 27.904 A 12.472 12.472 0 0 0 159.7 27.8 Q 154.5 27.8 150.15 31.55 A 19.358 19.358 0 0 0 144.91 38.905 A 24.581 24.581 0 0 0 144 41.5 L 144 73 L 135.2 73 L 135.2 20.8 L 143.2 20.8 L 143.2 32 A 25.568 25.568 0 0 1 147.401 26.313 A 22.097 22.097 0 0 1 151.5 23.05 A 21.261 21.261 0 0 1 162.205 19.912 A 25.524 25.524 0 0 1 163 19.9 Q 169.5 19.9 173.4 23.45 Q 177.3 27 178.2 32.6 A 31.006 31.006 0 0 1 181.81 27.437 A 23.457 23.457 0 0 1 186.7 23.15 A 20.228 20.228 0 0 1 197.109 19.92 A 24.582 24.582 0 0 1 198.1 19.9 A 20.389 20.389 0 0 1 201.394 20.152 Q 203.248 20.456 204.78 21.126 A 11.6 11.6 0 0 1 205.65 21.55 Q 208.7 23.2 210.5 26.15 A 19.192 19.192 0 0 1 212.285 30.023 A 24.856 24.856 0 0 1 213.1 33.1 Q 213.9 37.1 213.9 41.8 Z M 295.9 41.8 L 295.9 73 L 287.1 73 L 287.1 43.8 A 42.951 42.951 0 0 0 286.904 39.538 Q 286.393 34.432 284.55 31.65 A 8.279 8.279 0 0 0 278.509 27.914 A 12.372 12.372 0 0 0 276.8 27.8 A 15.16 15.16 0 0 0 271.094 28.943 A 18.395 18.395 0 0 0 269.65 29.6 Q 266.1 31.4 263.35 34.45 Q 260.6 37.5 259.4 41.5 L 259.4 73 L 250.6 73 L 250.6 20.8 L 258.6 20.8 L 258.6 32 Q 260.7 28.3 264 25.6 Q 267.3 22.9 271.5 21.4 Q 275.7 19.9 280.3 19.9 A 20.389 20.389 0 0 1 283.594 20.152 Q 285.448 20.456 286.98 21.126 A 11.6 11.6 0 0 1 287.85 21.55 Q 290.9 23.2 292.65 26.15 A 19.069 19.069 0 0 1 294.376 30.023 A 24.888 24.888 0 0 1 295.15 33.1 A 43.542 43.542 0 0 1 295.792 38.339 A 54.141 54.141 0 0 1 295.9 41.8 Z M 111.7 31.2 L 111.7 0 L 120.5 0 L 120.5 63 Q 120.5 64.6 121.15 65.35 Q 121.8 66.1 123.3 66.2 L 123.3 73 Q 121.239 73.33 119.926 73.388 A 11.972 11.972 0 0 1 119.4 73.4 Q 116.8 73.4 114.85 71.6 A 6.994 6.994 0 0 1 113.71 70.27 A 4.829 4.829 0 0 1 112.9 67.6 L 112.9 63.2 Q 109.8 68.2 104.6 71.1 A 22.479 22.479 0 0 1 96.918 73.771 A 21.182 21.182 0 0 1 93.8 74 A 23.706 23.706 0 0 1 86.477 72.889 A 21.839 21.839 0 0 1 83.85 71.85 Q 79.3 69.7 75.95 65.9 Q 72.6 62.1 70.75 57.25 Q 68.9 52.4 68.9 47 A 31.211 31.211 0 0 1 70.342 37.416 A 28.489 28.489 0 0 1 71.95 33.45 A 25.871 25.871 0 0 1 78.348 25.139 A 25.007 25.007 0 0 1 80.35 23.6 A 20.914 20.914 0 0 1 92.117 19.905 A 25.435 25.435 0 0 1 92.6 19.9 A 20.505 20.505 0 0 1 100.985 21.605 A 19.872 19.872 0 0 1 103.9 23.2 Q 108.9 26.5 111.7 31.2 Z M 0 73 L 29.1 2 L 36.7 2 L 65.7 73 L 56.1 73 L 47.7 52.2 L 17.9 52.2 L 9.6 73 L 0 73 Z M 236.4 73 L 227.6 73 L 227.6 20.8 L 236.4 20.8 L 236.4 73 Z M 111.7 54.7 L 111.7 39.7 A 16.462 16.462 0 0 0 108.213 33.984 A 19.132 19.132 0 0 0 107.8 33.55 Q 105.1 30.8 101.75 29.15 A 16.415 16.415 0 0 0 98.101 27.839 A 13.633 13.633 0 0 0 95.1 27.5 A 15.89 15.89 0 0 0 90.625 28.113 A 13.984 13.984 0 0 0 88.05 29.15 Q 84.9 30.8 82.65 33.55 Q 80.4 36.3 79.2 39.8 Q 78 43.3 78 47.1 Q 78 51 79.35 54.5 Q 80.7 58 83.15 60.7 Q 85.6 63.4 88.85 64.9 A 16.531 16.531 0 0 0 95.545 66.397 A 19.06 19.06 0 0 0 95.9 66.4 A 14.073 14.073 0 0 0 99.388 65.945 A 17.1 17.1 0 0 0 100.85 65.5 Q 103.4 64.6 105.7 63 Q 108 61.4 109.6 59.25 A 12.096 12.096 0 0 0 111.219 56.339 A 10.73 10.73 0 0 0 111.7 54.7 Z M 19.7 45.2 L 45.7 45.2 L 32.9 12.4 L 19.7 45.2 Z M 236.4 11 L 227.6 11 L 227.6 0 L 236.4 0 L 236.4 11 Z" vector-effect="non-scaling-stroke"/></g></svg>